<svg width="26" height="26" fill="none" xmlns="http://www.w3.org/2000/svg"><circle cx="13" cy="13" r="13" fill="#009688"/><path d="M14.612 14.666l.827.972a3.66 3.66 0 00.796-1.256c.19-.485.284-.985.284-1.5 0-1.063-.335-1.956-1.003-2.681-.67-.725-1.504-1.087-2.505-1.087-1.015 0-1.858.362-2.527 1.087-.668.72-1.003 1.613-1.003 2.68 0 1.078.327 1.97.98 2.68.659.71 1.494 1.065 2.505 1.065.086 0 .206-.008.36-.023.158-.02.344-.048.558-.084l-1.615-1.853h2.343zm4.311 5.1h-2.389l-1.217-1.44a16.48 16.48 0 01-1.379.306c-.362.067-.687.1-.973.1-.77 0-1.526-.15-2.266-.452a5.985 5.985 0 01-1.938-1.256 5.835 5.835 0 01-1.31-1.899A5.795 5.795 0 017 12.866c0-.786.15-1.534.452-2.244a5.846 5.846 0 011.31-1.914 5.727 5.727 0 011.93-1.264A6.152 6.152 0 0113.011 7c.796 0 1.56.148 2.29.444.73.291 1.378.712 1.944 1.264a5.834 5.834 0 011.302 1.899c.301.71.452 1.463.452 2.259a5.64 5.64 0 01-.544 2.458c-.362.76-.893 1.437-1.593 2.03l2.06 2.412z" fill="#fff"/></svg>