<svg width="199" height="32" fill="none" xmlns="http://www.w3.org/2000/svg"><g clip-path="url(#clip0)"><path d="M16 32c8.837 0 16-7.163 16-16S24.837 0 16 0 0 7.163 0 16s7.163 16 16 16z" fill="#E6E6E6"/><path d="M11.947 15.787v8.533H3.413l8.534-8.533z" fill="#000"/><path d="M11.947 24.32v-8.533h8.533l-8.533 8.533z" fill="#00796B"/><path d="M20.48 15.787V7.253h8.535l-8.535 8.534z" fill="#B2DFDB"/><path d="M20.48 7.253v8.534h-8.533l8.533-8.534z" fill="#009688"/><path d="M42.037 3.635h4.34l-3.442 24.719h-4.237l3.339-24.72zm10.321 9.021c1.609-1.446 3.22-2.2 5.09-2.2 3.022 0 5.19 2.135 5.19 5.157-.033.99-.132 1.977-.296 2.955l-1.314 9.786h-4.245l1.258-9.553c.11-.706.173-1.42.19-2.134 0-1.51-.95-2.266-2.266-2.266-1.018 0-2.201.558-2.99 1.478-1.247 1.445-1.541 3.547-1.898 6.304l-.82 6.175h-4.27l2.364-17.442h4.27l-.263 1.74zm19.394-9.021c-3.547 0-4.193 2.879-4.748 7.281h-1.872l-.492 3.679h1.829l-1.873 13.759h4.27l1.899-13.76h2.658l.494-3.678h-2.659c.323-2.387.274-3.56 1.392-3.608h1.9l.493-3.679m4.554 7.293c-3.547 0-4.086 2.469-4.645 6.875l-.524 3.678-.932 6.879h4.269l.968-6.879.447-3.259.045-.42c.323-2.387.167-3.156 1.286-3.196h1.899l.492-3.678m13.052 15.096c-1.608 1.51-3.021 2.33-5.317 2.33-4.558 0-7.555-3.874-7.555-8.472 0-5.354 4.304-9.875 9.361-9.875a5.957 5.957 0 015.188 2.888l.266-1.963h4.275l-2.279 17.428h-4.22l.281-2.336zm1.184-7.488c0-2.629-1.675-4.598-4.368-4.598-2.99 0-5.453 2.429-5.453 6.043 0 2.757 1.74 4.558 4.302 4.558 3.515.011 5.519-3.043 5.519-5.998v-.005z" fill="#212121"/><path d="M115.614 15.814a30.87 30.87 0 006.518-5.02l1.12 1.182a43.213 43.213 0 01-6.457 4.804l-1.24 9.116a14.593 14.593 0 00-.171 2.19h-1.888a18.7 18.7 0 00.428-2.19l1.103-8.107a51.049 51.049 0 01-8.762 3.538l-.57-1.48a42.156 42.156 0 009.919-4.033zm17.538 7.253c3.542-2.06 6.545-5.213 8.125-7.83l.701 1.629a26.36 26.36 0 01-8.112 7.574 27.15 27.15 0 01-8.998 3.388l-.774-1.565a25.03 25.03 0 009.058-3.196zm-.569-6.78l-1.354 1.202c-.923-1.094-3.273-3.39-4.735-4.463l1.252-1.158c1.394 1.008 3.83 3.24 4.827 4.419h.01zm20.117-4.032c-.19.277-.401.57-.636.9h6.077c.451.016.901-.048 1.329-.19l1.183.773a7.978 7.978 0 00-.621 1.075c-.833 2.038-2.383 4.59-4.311 6.778.832.665 1.58 1.308 2.211 1.888l-1.316 1.308a34.977 34.977 0 00-2.089-1.93c-2.18 2.145-5.128 4.14-9.01 5.508l-1.196-1.208a22.508 22.508 0 009.082-5.255c-1.412-1.139-2.929-2.279-4.226-3.154l1.172-1.05c1.346.835 2.829 1.899 4.229 2.981 1.7-1.931 3.16-4.313 3.863-6.156h-7.462a28.258 28.258 0 01-6.457 5.706l-1.139-.987a23.971 23.971 0 007.913-7.551 9.22 9.22 0 00.859-1.588l1.662.559c-.416.543-.849 1.205-1.117 1.593zm12.302 6.166h11.805c.761.003 1.522-.034 2.279-.108l-.253 1.867c-.427-.02-1.276-.085-2.241-.085h-11.818c-1.181 0-2.26.041-2.909.085l.254-1.867c.614.055 1.66.108 2.883.108zm24.55 4.646c3.542-2.06 6.544-5.213 8.124-7.83l.701 1.629a26.345 26.345 0 01-8.111 7.574 27.158 27.158 0 01-8.998 3.388l-.775-1.565a25.028 25.028 0 009.059-3.196zm-.579-6.78l-1.341 1.202c-.923-1.094-3.272-3.39-4.734-4.463l1.251-1.158c1.394 1.008 3.827 3.24 4.824 4.419z" fill="#009688"/></g><defs><clipPath id="clip0"><path fill="#fff" d="M0 0h198.377v32H0z"/></clipPath></defs></svg>