<svg width="137" height="28" fill="none" xmlns="http://www.w3.org/2000/svg"><rect x="36" y="1" width="101" height="26" rx="1" fill="url(#paint0_linear_9912_12010)"/><mask id="a" style="mask-type:alpha" maskUnits="userSpaceOnUse" x="0" y="0" width="28" height="28"><path fill="#D9D9D9" d="M0 0h28v28H0z"/></mask><g mask="url(#a)"><path fill-rule="evenodd" clip-rule="evenodd" d="M14.005 4.862a1.511 1.511 0 100-3.022 1.511 1.511 0 000 3.022zm-6.423 9.271l6.031-7.754a.504.504 0 01.795 0l6.023 7.744 4.313-3.955a.504.504 0 01.845.372v4.395h-6.044v-.001H8.456h.001-6.043V10.54c0-.438.52-.667.844-.37l4.325 3.964zm17.999.802H2.413v6.044c0 .557.45 1.008 1.007 1.008h21.153c.557 0 1.008-.451 1.008-1.008v-6.044zm-23.172 9.64c0-.555.449-1.004 1.003-1.004h21.161c.554 0 1.004.45 1.004 1.003v.58c0 .556-.451 1.007-1.008 1.007H3.416a1.007 1.007 0 01-1.007-1.007v-.58zM27.997 7.38a1.511 1.511 0 11-3.022 0 1.511 1.511 0 013.022 0zM1.511 8.891a1.511 1.511 0 110-3.023 1.511 1.511 0 010 3.022z" fill="url(#paint1_linear_9912_12010)"/></g><path d="M128.752 8.148L127 7.326l.282-.498 1.596 1.098L128.71 6h.57l-.156 1.926 1.59-1.11.288.498-1.752.822 1.752.822-.282.498-1.59-1.098.162 1.926h-.57l.156-1.932-1.59 1.116-.282-.498 1.746-.822z" fill="#fff"/><g clip-path="url(#clip0_9912_12010)" fill="#fff"><path d="M44.944 19.482l-.948-1.777c.345-.13.754-.313 1.228-.55a34.254 34.254 0 002.95-1.658c.464-.29.862-.57 1.185-.819l.57 1.67a10.99 10.99 0 01-1.022.743c-.41.269-.85.56-1.325.85-.474.291-.937.571-1.4.84-.463.27-.883.496-1.249.7h.01zm3.812 1.378c0-.172-.043-.366-.086-.592-.043-.227-.097-.453-.14-.668a2.829 2.829 0 00-.162-.528h1.282c.215 0 .366-.032.452-.097.086-.064.14-.194.14-.398V11.08h-5.804V9.424h5.804V7.108h1.81v2.326h2.347a29.94 29.94 0 00-.678-.819 8.9 8.9 0 00-.69-.71L54.346 7c.194.15.399.334.625.56.226.226.441.452.657.69.215.236.377.44.517.624-.097.054-.226.13-.388.226-.161.097-.312.205-.474.312h2.553v1.659h-5.773v1.292c.151.28.323.57.528.862.205.301.42.592.646.883a19.885 19.885 0 001.712-1.713c.259-.29.474-.56.647-.775l1.389 1.174c-.194.237-.442.517-.743.818-.302.302-.614.603-.948.905-.323.302-.635.582-.948.83.593.58 1.228 1.12 1.896 1.615.667.495 1.335.915 2.014 1.238-.227.194-.453.43-.69.732-.237.302-.43.56-.57.787a18.238 18.238 0 01-1.756-1.239 17.909 17.909 0 01-1.723-1.55 13.675 13.675 0 01-1.465-1.745v4.06c0 .549-.161.958-.473 1.206-.313.247-.797.377-1.443.377h-1.368l-.01.032zm-1.4-5.643a7.349 7.349 0 00-.57-.85c-.227-.302-.464-.604-.7-.906a8.455 8.455 0 00-.69-.764l1.508-1.088c.344.334.7.732 1.077 1.196.377.463.689.904.947 1.324a6.26 6.26 0 00-.818.517 9.22 9.22 0 00-.743.57h-.01zm13.443 5.471a7.84 7.84 0 00-.528-.808 4.84 4.84 0 00-.646-.722 13.203 13.203 0 003.015-1.992 8.968 8.968 0 002.122-2.735c.517-1.034.775-2.176.775-3.425V7.312h1.874v3.177c0 1.002.162 1.95.495 2.822a9.293 9.293 0 001.357 2.401 10.504 10.504 0 001.95 1.906c.721.55 1.486 1.002 2.272 1.347a7.6 7.6 0 00-.625.818 9.419 9.419 0 00-.538.872c-.85-.441-1.659-.98-2.412-1.626a12.1 12.1 0 01-1.982-2.154 10.623 10.623 0 01-1.346-2.498 8.782 8.782 0 01-1.314 2.541 12.29 12.29 0 01-2.025 2.143 14.04 14.04 0 01-2.444 1.637v-.01zm21.577.14c-.076-.14-.173-.313-.291-.517-.13-.205-.258-.399-.398-.593-.13.151-.27.313-.41.485-.14.172-.247.312-.334.42a9.12 9.12 0 00-.635-.539 12.485 12.485 0 00-.786-.56 6.409 6.409 0 01-1.68.819c-.625.205-1.325.355-2.09.463-.032-.118-.075-.28-.14-.474a8.934 8.934 0 00-.204-.57c-.075-.184-.14-.334-.215-.431 1.13-.087 2.078-.334 2.832-.743a20.153 20.153 0 00-2.122-1.088c.108-.14.237-.323.377-.538.14-.216.291-.453.442-.7h-1.465v-1.433h2.294c.334-.581.57-1.055.71-1.421v-1.476c-.311.356-.656.7-1.044 1.056-.377.355-.743.646-1.066.894a2.924 2.924 0 00-.323-.41c-.14-.15-.27-.29-.41-.42a2.822 2.822 0 00-.344-.28c.226-.129.474-.301.765-.517.29-.215.57-.452.872-.721.29-.259.56-.517.797-.754h-2.1V9.412h1.12c-.15-.29-.323-.581-.517-.883a7.243 7.243 0 00-.538-.732l1.174-.668c.14.162.29.356.452.592.161.227.312.464.463.69.15.226.258.42.334.592a5.557 5.557 0 00-.786.41h1.141v-2.38h1.508v2.4h1.066a6.966 6.966 0 00-.388-.215c-.129-.064-.247-.107-.344-.15a8.12 8.12 0 00.624-.98 8.58 8.58 0 00.463-.97l1.357.56a8.92 8.92 0 01-.463.873 10.28 10.28 0 01-.549.872h1.045v1.368h-2.047c.259.29.56.581.883.883.324.301.636.538.916.71-.15.119-.323.28-.528.496a4.475 4.475 0 00-.495.581 9.01 9.01 0 01-.786-.689 13.162 13.162 0 01-.743-.808v1.573h-1.12l1.141.377c-.064.129-.13.269-.215.43a7.373 7.373 0 01-.259.496h3.403v1.432h-.98c-.226.83-.57 1.551-1.044 2.143.226.13.43.27.624.41.194.14.377.28.55.42a7.057 7.057 0 001.669-.97 6.753 6.753 0 001.26-1.281 10.859 10.859 0 01-.722-1.616 13.336 13.336 0 01-.495-1.733 6.403 6.403 0 01-.312.538c-.108.162-.216.334-.323.495a3.63 3.63 0 00-.657-.441c-.28-.15-.539-.27-.797-.355a7.22 7.22 0 00.915-1.465c.27-.55.506-1.142.722-1.755.204-.614.377-1.228.506-1.842a18.87 18.87 0 00.29-1.712l1.659.237c-.14.872-.334 1.755-.57 2.649h4.08v1.508h-.893a16.44 16.44 0 01-.474 2.993 9.763 9.763 0 01-.99 2.477c.72.916 1.636 1.712 2.724 2.38-.13.13-.28.291-.442.463a6.373 6.373 0 00-.441.528c-.13.172-.226.302-.27.388-.516-.334-.98-.7-1.41-1.099-.43-.398-.819-.808-1.163-1.238-.873.99-2.003 1.798-3.392 2.412l.032.022zm-3.091-3.242a4.69 4.69 0 00.722-1.314H78.51c-.087.14-.173.27-.248.399-.076.129-.14.237-.205.334.399.161.808.355 1.217.57l.011.011zm6.472-2.23c.237-.58.431-1.194.56-1.84.13-.647.216-1.315.237-1.993h-1.766c.054.71.15 1.39.312 2.035.162.646.377 1.25.647 1.81l.01-.011zm16.921 5.094V7.55h-2.035v9.433L94.375 7.55H92.34v12.902h2.003v-9.693l6.375 9.693h1.96zm10.672-2.293c.388-.721.582-1.583.582-2.552 0-.97-.194-1.831-.582-2.553-.388-.721-.915-1.292-1.583-1.69-.668-.399-1.443-.604-2.315-.604-.873 0-1.605.205-2.273.604a4.318 4.318 0 00-1.594 1.69c-.387.722-.581 1.584-.581 2.553 0 .969.194 1.83.581 2.552a4.318 4.318 0 001.594 1.69c.668.4 1.433.604 2.273.604.84 0 1.647-.205 2.315-.603.668-.399 1.195-.97 1.583-1.691zm-2.143-.334c-.452.528-1.034.786-1.745.786-.71 0-1.27-.269-1.723-.786-.441-.517-.657-1.27-.657-2.218s.227-1.702.657-2.219c.442-.527 1.023-.786 1.723-.786.7 0 1.303.27 1.745.786.442.517.668 1.271.668 2.219 0 .947-.226 1.701-.668 2.218zm6.61.485a1.22 1.22 0 00-.894-.367 1.22 1.22 0 00-.894.367 1.23 1.23 0 00-.377.893c0 .345.119.636.377.883.248.248.549.367.894.367s.646-.119.894-.367c.248-.247.377-.538.377-.883a1.21 1.21 0 00-.377-.893zm6.412 2.142V7.41h-1.443l-3.759 2.325.991 1.583 2.348-1.54v10.673h1.863z"/></g><rect x="36" y="1" width="101" height="26" rx="1" fill="url(#paint2_linear_9912_12010)"/><mask id="b" style="mask-type:alpha" maskUnits="userSpaceOnUse" x="0" y="0" width="28" height="28"><path fill="#D9D9D9" d="M0 0h28v28H0z"/></mask><g mask="url(#b)"><path fill-rule="evenodd" clip-rule="evenodd" d="M14.005 4.862a1.511 1.511 0 100-3.022 1.511 1.511 0 000 3.022zm-6.423 9.271l6.031-7.754a.504.504 0 01.795 0l6.023 7.744 4.313-3.955a.504.504 0 01.845.372v4.395h-6.044v-.001H8.456h.001-6.043V10.54c0-.438.52-.667.844-.37l4.325 3.964zm17.999.802H2.413v6.044c0 .557.45 1.008 1.007 1.008h21.153c.557 0 1.008-.451 1.008-1.008v-6.044zm-23.172 9.64c0-.555.449-1.004 1.003-1.004h21.161c.554 0 1.004.45 1.004 1.003v.58c0 .556-.451 1.007-1.008 1.007H3.416a1.007 1.007 0 01-1.007-1.007v-.58zM27.997 7.38a1.511 1.511 0 11-3.022 0 1.511 1.511 0 013.022 0zM1.511 8.891a1.511 1.511 0 110-3.023 1.511 1.511 0 010 3.022z" fill="url(#paint3_linear_9912_12010)"/></g><path d="M128.752 8.148L127 7.326l.282-.498 1.596 1.098L128.71 6h.57l-.156 1.926 1.59-1.11.288.498-1.752.822 1.752.822-.282.498-1.59-1.098.162 1.926h-.57l.156-1.932-1.59 1.116-.282-.498 1.746-.822z" fill="#fff"/><g clip-path="url(#clip1_9912_12010)" fill="#fff"><path d="M44.944 19.482l-.948-1.777c.345-.13.754-.313 1.228-.55a34.254 34.254 0 002.95-1.658c.464-.29.862-.57 1.185-.819l.57 1.67a10.99 10.99 0 01-1.022.743c-.41.269-.85.56-1.325.85-.474.291-.937.571-1.4.84-.463.27-.883.496-1.249.7h.01zm3.812 1.378c0-.172-.043-.366-.086-.592-.043-.227-.097-.453-.14-.668a2.829 2.829 0 00-.162-.528h1.282c.215 0 .366-.032.452-.097.086-.064.14-.194.14-.398V11.08h-5.804V9.424h5.804V7.108h1.81v2.326h2.347a29.94 29.94 0 00-.678-.819 8.9 8.9 0 00-.69-.71L54.346 7c.194.15.399.334.625.56.226.226.441.452.657.69.215.236.377.44.517.624-.097.054-.226.13-.388.226-.161.097-.312.205-.474.312h2.553v1.659h-5.773v1.292c.151.28.323.57.528.862.205.301.42.592.646.883a19.885 19.885 0 001.712-1.713c.259-.29.474-.56.647-.775l1.389 1.174c-.194.237-.442.517-.743.818-.302.302-.614.603-.948.905-.323.302-.635.582-.948.83.593.58 1.228 1.12 1.896 1.615.667.495 1.335.915 2.014 1.238-.227.194-.453.43-.69.732-.237.302-.43.56-.57.787a18.238 18.238 0 01-1.756-1.239 17.909 17.909 0 01-1.723-1.55 13.675 13.675 0 01-1.465-1.745v4.06c0 .549-.161.958-.473 1.206-.313.247-.797.377-1.443.377h-1.368l-.01.032zm-1.4-5.643a7.349 7.349 0 00-.57-.85c-.227-.302-.464-.604-.7-.906a8.455 8.455 0 00-.69-.764l1.508-1.088c.344.334.7.732 1.077 1.196.377.463.689.904.947 1.324a6.26 6.26 0 00-.818.517 9.22 9.22 0 00-.743.57h-.01zm13.443 5.471a7.84 7.84 0 00-.528-.808 4.84 4.84 0 00-.646-.722 13.203 13.203 0 003.015-1.992 8.968 8.968 0 002.122-2.735c.517-1.034.775-2.176.775-3.425V7.312h1.874v3.177c0 1.002.162 1.95.495 2.822a9.293 9.293 0 001.357 2.401 10.504 10.504 0 001.95 1.906c.721.55 1.486 1.002 2.272 1.347a7.6 7.6 0 00-.625.818 9.419 9.419 0 00-.538.872c-.85-.441-1.659-.98-2.412-1.626a12.1 12.1 0 01-1.982-2.154 10.623 10.623 0 01-1.346-2.498 8.782 8.782 0 01-1.314 2.541 12.29 12.29 0 01-2.025 2.143 14.04 14.04 0 01-2.444 1.637v-.01zm21.577.14c-.076-.14-.173-.313-.291-.517-.13-.205-.258-.399-.398-.593-.13.151-.27.313-.41.485-.14.172-.247.312-.334.42a9.12 9.12 0 00-.635-.539 12.485 12.485 0 00-.786-.56 6.409 6.409 0 01-1.68.819c-.625.205-1.325.355-2.09.463-.032-.118-.075-.28-.14-.474a8.934 8.934 0 00-.204-.57c-.075-.184-.14-.334-.215-.431 1.13-.087 2.078-.334 2.832-.743a20.153 20.153 0 00-2.122-1.088c.108-.14.237-.323.377-.538.14-.216.291-.453.442-.7h-1.465v-1.433h2.294c.334-.581.57-1.055.71-1.421v-1.476c-.311.356-.656.7-1.044 1.056-.377.355-.743.646-1.066.894a2.924 2.924 0 00-.323-.41c-.14-.15-.27-.29-.41-.42a2.822 2.822 0 00-.344-.28c.226-.129.474-.301.765-.517.29-.215.57-.452.872-.721.29-.259.56-.517.797-.754h-2.1V9.412h1.12c-.15-.29-.323-.581-.517-.883a7.243 7.243 0 00-.538-.732l1.174-.668c.14.162.29.356.452.592.161.227.312.464.463.69.15.226.258.42.334.592a5.557 5.557 0 00-.786.41h1.141v-2.38h1.508v2.4h1.066a6.966 6.966 0 00-.388-.215c-.129-.064-.247-.107-.344-.15a8.12 8.12 0 00.624-.98 8.58 8.58 0 00.463-.97l1.357.56a8.92 8.92 0 01-.463.873 10.28 10.28 0 01-.549.872h1.045v1.368h-2.047c.259.29.56.581.883.883.324.301.636.538.916.71-.15.119-.323.28-.528.496a4.475 4.475 0 00-.495.581 9.01 9.01 0 01-.786-.689 13.162 13.162 0 01-.743-.808v1.573h-1.12l1.141.377c-.064.129-.13.269-.215.43a7.373 7.373 0 01-.259.496h3.403v1.432h-.98c-.226.83-.57 1.551-1.044 2.143.226.13.43.27.624.41.194.14.377.28.55.42a7.057 7.057 0 001.669-.97 6.753 6.753 0 001.26-1.281 10.859 10.859 0 01-.722-1.616 13.336 13.336 0 01-.495-1.733 6.403 6.403 0 01-.312.538c-.108.162-.216.334-.323.495a3.63 3.63 0 00-.657-.441c-.28-.15-.539-.27-.797-.355a7.22 7.22 0 00.915-1.465c.27-.55.506-1.142.722-1.755.204-.614.377-1.228.506-1.842a18.87 18.87 0 00.29-1.712l1.659.237c-.14.872-.334 1.755-.57 2.649h4.08v1.508h-.893a16.44 16.44 0 01-.474 2.993 9.763 9.763 0 01-.99 2.477c.72.916 1.636 1.712 2.724 2.38-.13.13-.28.291-.442.463a6.373 6.373 0 00-.441.528c-.13.172-.226.302-.27.388-.516-.334-.98-.7-1.41-1.099-.43-.398-.819-.808-1.163-1.238-.873.99-2.003 1.798-3.392 2.412l.032.022zm-3.091-3.242a4.69 4.69 0 00.722-1.314H78.51c-.087.14-.173.27-.248.399-.076.129-.14.237-.205.334.399.161.808.355 1.217.57l.011.011zm6.472-2.23c.237-.58.431-1.194.56-1.84.13-.647.216-1.315.237-1.993h-1.766c.054.71.15 1.39.312 2.035.162.646.377 1.25.647 1.81l.01-.011zm16.921 5.094V7.55h-2.035v9.433L94.375 7.55H92.34v12.902h2.003v-9.693l6.375 9.693h1.96zm10.672-2.293c.388-.721.582-1.583.582-2.552 0-.97-.194-1.831-.582-2.553-.388-.721-.915-1.292-1.583-1.69-.668-.399-1.443-.604-2.315-.604-.873 0-1.605.205-2.273.604a4.318 4.318 0 00-1.594 1.69c-.387.722-.581 1.584-.581 2.553 0 .969.194 1.83.581 2.552a4.318 4.318 0 001.594 1.69c.668.4 1.433.604 2.273.604.84 0 1.647-.205 2.315-.603.668-.399 1.195-.97 1.583-1.691zm-2.143-.334c-.452.528-1.034.786-1.745.786-.71 0-1.27-.269-1.723-.786-.441-.517-.657-1.27-.657-2.218s.227-1.702.657-2.219c.442-.527 1.023-.786 1.723-.786.7 0 1.303.27 1.745.786.442.517.668 1.271.668 2.219 0 .947-.226 1.701-.668 2.218zm6.61.485a1.22 1.22 0 00-.894-.367 1.22 1.22 0 00-.894.367 1.23 1.23 0 00-.377.893c0 .345.119.636.377.883.248.248.549.367.894.367s.646-.119.894-.367c.248-.247.377-.538.377-.883a1.21 1.21 0 00-.377-.893zm6.412 2.142V7.41h-1.443l-3.759 2.325.991 1.583 2.348-1.54v10.673h1.863z"/></g><defs><linearGradient id="paint0_linear_9912_12010" x1="36" y1="27" x2="139.5" y2="1" gradientUnits="userSpaceOnUse"><stop stop-color="#DBAB00"/><stop offset=".66" stop-color="#F0D988"/><stop offset="1" stop-color="#DBAB00"/></linearGradient><linearGradient id="paint1_linear_9912_12010" x1="29.071" y1="5.727" x2="-1.039" y2="28.586" gradientUnits="userSpaceOnUse"><stop stop-color="#DBAB00"/><stop offset=".51" stop-color="#F0D988"/><stop offset="1" stop-color="#DBAB00"/></linearGradient><linearGradient id="paint2_linear_9912_12010" x1="30.5" y1="35" x2="139.366" y2="47.719" gradientUnits="userSpaceOnUse"><stop stop-color="#AB7B2D"/><stop offset=".292" stop-color="#E8D28B"/><stop offset=".76" stop-color="#E8D28B"/><stop offset="1" stop-color="#C0A371"/></linearGradient><linearGradient id="paint3_linear_9912_12010" x1="1.5" y1="27" x2="31.317" y2="12.999" gradientUnits="userSpaceOnUse"><stop stop-color="#AB7B2D"/><stop offset=".3" stop-color="#E8D28B"/><stop offset=".45" stop-color="#E8D28B"/><stop offset=".763" stop-color="#C0A371"/></linearGradient><clipPath id="clip0_9912_12010"><path fill="#fff" transform="translate(44 7)" d="M0 0h81v14H0z"/></clipPath><clipPath id="clip1_9912_12010"><path fill="#fff" transform="translate(44 7)" d="M0 0h81v14H0z"/></clipPath></defs></svg>